<svg width="24" height="24" viewBox="0 0 24 24" fill="none" xmlns="http://www.w3.org/2000/svg">
<path d="M13.4899 5.48C14.5899 5.48 15.4899 4.58 15.4899 3.48C15.4899 2.38 14.5899 1.48 13.4899 1.48C12.3899 1.48 11.4899 2.38 11.4899 3.48C11.4899 4.58 12.3899 5.48 13.4899 5.48ZM9.88989 19.38L10.8899 14.98L12.9899 16.98V22.98H14.9899V15.48L12.8899 13.48L13.4899 10.48C14.7899 11.98 16.7899 12.98 18.9899 12.98V10.98C17.0899 10.98 15.4899 9.98 14.6899 8.58L13.6899 6.98C13.2899 6.38 12.6899 5.98 11.9899 5.98C11.6899 5.98 11.4899 6.08 11.1899 6.08L5.98989 8.28V12.98H7.98989V9.58L9.78989 8.88L8.18989 16.98L3.28989 15.98L2.88989 17.98L9.88989 19.38Z" fill="black"/>
</svg>
