<svg width="339" height="277" viewBox="0 0 339 277" fill="none" xmlns="http://www.w3.org/2000/svg">
<defs>
<linearGradient id="paint0_linear_476_1410" x1="223.973" y1="-72.6865" x2="109.588" y2="604.554" gradientUnits="userSpaceOnUse">
<stop offset="0.01"/>
<stop offset="0.0416667"/>
<stop offset="0.9999" stop-opacity="0.32"/>
<stop offset="1" stop-opacity="0"/>
</linearGradient>
<linearGradient id="paint1_linear_476_1410" x1="78.7131" y1="144.58" x2="115.646" y2="297.915" gradientUnits="userSpaceOnUse">
<stop offset="0.01"/>
<stop offset="0.08" stop-opacity="0.69"/>
<stop offset="0.21" stop-opacity="0.32"/>
<stop offset="1" stop-opacity="0"/>
</linearGradient>
<linearGradient id="paint2_linear_476_1410" x1="301.173" y1="188.898" x2="203.185" y2="247.158" gradientUnits="userSpaceOnUse">
<stop offset="0.01"/>
<stop offset="0.08" stop-opacity="0.69"/>
<stop offset="0.21" stop-opacity="0.32"/>
<stop offset="1" stop-opacity="0"/>
</linearGradient>
<linearGradient id="paint3_linear_476_1410" x1="263.036" y1="183.813" x2="315.388" y2="228.687" gradientUnits="userSpaceOnUse">
<stop offset="0.01"/>
<stop offset="0.08" stop-opacity="0.69"/>
<stop offset="0.21" stop-opacity="0.32"/>
<stop offset="1" stop-opacity="0"/>
</linearGradient>
<linearGradient id="paint4_linear_476_1410" x1="229.021" y1="145.585" x2="303.96" y2="109.908" gradientUnits="userSpaceOnUse">
<stop offset="0.01"/>
<stop offset="0.08" stop-opacity="0.69"/>
<stop offset="0.21" stop-opacity="0.32"/>
<stop offset="1" stop-opacity="0"/>
</linearGradient>
<linearGradient id="paint5_linear_476_1410" x1="276.87" y1="154.868" x2="296.258" y2="196.222" gradientUnits="userSpaceOnUse">
<stop offset="0.01"/>
<stop offset="0.08" stop-opacity="0.69"/>
<stop offset="0.21" stop-opacity="0.32"/>
<stop offset="1" stop-opacity="0"/>
</linearGradient>
<linearGradient id="paint6_linear_476_1410" x1="281.595" y1="206.114" x2="245.491" y2="214.23" gradientUnits="userSpaceOnUse">
<stop offset="0.01"/>
<stop offset="0.08" stop-opacity="0.69"/>
<stop offset="0.21" stop-opacity="0.32"/>
<stop offset="1" stop-opacity="0"/>
</linearGradient>
<linearGradient id="paint7_linear_476_1410" x1="255.954" y1="133.978" x2="327.205" y2="171.991" gradientUnits="userSpaceOnUse">
<stop offset="0.01"/>
<stop offset="0.08" stop-opacity="0.69"/>
<stop offset="0.21" stop-opacity="0.32"/>
<stop offset="1" stop-opacity="0"/>
</linearGradient>
<linearGradient id="paint8_linear_476_1410" x1="240.123" y1="112.316" x2="277.22" y2="114.956" gradientUnits="userSpaceOnUse">
<stop offset="0.01"/>
<stop offset="0.08" stop-opacity="0.69"/>
<stop offset="0.21" stop-opacity="0.32"/>
<stop offset="1" stop-opacity="0"/>
</linearGradient>
<linearGradient id="paint9_linear_476_1410" x1="93.5493" y1="84.2103" x2="66.1114" y2="139.854" gradientUnits="userSpaceOnUse">
<stop offset="0.01"/>
<stop offset="0.08" stop-opacity="0.69"/>
<stop offset="0.21" stop-opacity="0.32"/>
<stop offset="1" stop-opacity="0"/>
</linearGradient>
<linearGradient id="paint10_linear_476_1410" x1="153.247" y1="140.473" x2="70.0636" y2="83.3338" gradientUnits="userSpaceOnUse">
<stop offset="0.01"/>
<stop offset="0.08" stop-opacity="0.69"/>
<stop offset="0.21" stop-opacity="0.32"/>
<stop offset="1" stop-opacity="0"/>
</linearGradient>
<clipPath id="clip0_476_1410">
<rect width="338.09" height="276.942" fill="white"/>
</clipPath>
</defs>
<g clip-path="url(#clip0_476_1410)">
<path opacity="0.18" d="M336.262 200.077C335.038 207.213 333.241 214.238 330.889 221.086C329.86 224.071 328.692 227.21 327.323 230.416C319.551 248.605 305.773 268.888 282.032 275.362C250.925 283.844 163.612 254.734 113.813 269.377C66.9114 283.17 37.9511 273.165 20.9774 256.433C18.1784 253.669 15.631 250.662 13.3654 247.447C0.74066 229.562 -1.63195 208.085 0.900208 198.425C4.80138 183.535 9.61352 168.61 9.74733 153.072C9.876 136.814 4.17864 120.828 3.57133 104.457C1.9913 63.021 31.0906 22.3366 70.8177 10.4581C87.8017 5.37316 101.698 0.164728 119.474 0.0360611C155.501 -0.272739 240.936 0.0360603 283.036 61.2814C290.56 72.2233 301.491 80.4013 309.881 90.6946C321.121 104.488 328.537 121.122 333.041 138.332C338.285 158.389 339.587 179.655 336.262 200.077Z" fill="#AD00FF"/>
<path d="M330.89 221.086C329.86 224.071 328.692 227.21 327.323 230.416C322.439 230.555 317.544 230.684 312.665 230.828C309.449 230.916 306.031 231.065 303.401 232.887C298.399 236.32 302.732 238.739 302.176 242.151C301.528 246.191 297.436 247.025 293.499 247.04C279.922 247.097 266.788 251.451 253.463 254.076C240.138 256.7 225.584 257.452 213.726 250.838C212.907 250.391 212.058 249.835 211.749 248.955C211.188 247.375 212.635 245.841 214.014 244.889C217.067 242.801 220.491 241.314 224.101 240.509C226.232 240.03 228.481 239.768 230.344 238.62C232.207 237.473 233.525 235.043 232.593 233.067C201.659 234.992 170.787 237.706 139.979 241.209C100.35 245.717 61.1527 253.561 21.369 256.397L20.9984 256.433C18.1994 253.669 15.6521 250.662 13.3865 247.447C13.5526 247.207 13.7367 246.98 13.9372 246.767C15.8981 244.673 18.7339 243.679 21.4771 242.825C36.7781 238.09 52.6916 235.692 68.5382 233.304C147.282 221.436 226.973 212.985 306.649 218.564C314.745 219.125 322.835 219.943 330.89 221.086Z" fill="url(#paint0_linear_476_1410)"/>
<path opacity="0.5" d="M143.87 34.1328H119.454V219.681H143.87V34.1328Z" fill="#834ADF"/>
<path opacity="0.5" d="M197.998 91.7703H173.582V217.678H197.998V91.7703Z" fill="#834ADF"/>
<path opacity="0.5" d="M243.051 133.674H218.636V217.678H243.051V133.674Z" fill="#834ADF"/>
<path d="M63.2783 173.649L134.678 184.235V242.763H142.83V246.227H124.045V243.999H132.439V195.471L64.9252 182.419V229.655H74.323V231.261H55.4039V229.408H63.2783V173.649Z" fill="white"/>
<path d="M62.1614 173.649L133.566 184.235V242.763H141.719V246.227H122.928V243.999H131.328V195.471L63.8135 182.419V229.655H73.2113V231.261H54.2922V229.408H62.1614V173.649Z" fill="url(#paint1_linear_476_1410)"/>
<path d="M261.338 174.91L262.532 233.551H270.478L272.768 186.942L277.776 233.551L286.881 235.079L288.97 172.99L261.338 174.91Z" fill="#834ADF"/>
<path d="M261.338 174.91L262.532 233.551H270.478L272.768 186.942L277.776 233.551L286.881 235.079L288.97 172.99L261.338 174.91Z" fill="url(#paint2_linear_476_1410)"/>
<path d="M281.435 232.64V178.286L288.97 172.99L286.428 233.551L281.435 232.64Z" fill="url(#paint3_linear_476_1410)"/>
<path d="M251.739 126.392C251.739 126.392 251.739 126.469 251.739 126.639C251.935 131.111 252.254 135.599 252.768 140.051C252.99 141.935 252.979 144.76 253.947 146.454C255.373 148.945 262.027 146.093 264.127 145.136C267.246 143.711 270.108 141.791 272.959 139.881C273.186 139.757 273.38 139.581 273.525 139.367C273.628 139.152 273.68 138.916 273.674 138.677C273.917 133.97 272.314 129.354 269.207 125.81C266.712 129.008 263.941 131.98 260.926 134.694L260.525 132.635L259.32 126.459C258.96 124.622 259.186 123.371 257.169 124.127C255.332 124.817 253.54 125.635 251.739 126.392Z" fill="#834ADF"/>
<path d="M251.744 126.639C251.904 130.298 252.146 133.958 252.501 137.607C252.784 140.556 252.408 148.111 256.814 147.565C260.339 147.133 263.365 144.91 266.742 143.829C267.961 143.438 269.253 143.186 270.344 142.532C271.878 141.514 272.979 139.962 273.432 138.178C273.87 136.41 274.088 134.595 274.081 132.774C271.044 133.978 268.569 136.232 266.006 138.26C264.339 139.67 262.473 140.826 260.468 141.688C258.126 142.609 257.328 142.491 257.431 139.866C257.598 135.598 257.018 131.335 255.717 127.267C255.671 127.073 255.573 126.895 255.434 126.752C255.243 126.632 255.016 126.581 254.791 126.608C253.782 126.613 252.758 126.613 251.744 126.639Z" fill="url(#paint4_linear_476_1410)"/>
<path d="M283.077 123.036C285.193 124.099 287.254 125.267 289.253 126.536C293.504 129.259 292.743 130.525 291.955 135.224C290.298 145.283 289.472 155.461 289.485 165.656C289.485 168.049 289.644 170.684 288.97 173.01C288.527 174.554 287.508 175.795 287.395 177.401C280.838 178.301 265.831 181.677 261.332 174.935C257.035 168.487 264.77 145.568 263.34 135.393C261.909 125.219 275.089 124.071 275.089 124.071L283.077 123.036Z" fill="#834ADF"/>
<path d="M274.04 170.041L285.923 178.059L287.869 175.579C289.017 171.445 289.552 167.166 289.459 162.877C289.171 156.474 289.49 158.759 289.49 158.759L272.768 169.336L274.04 170.041Z" fill="url(#paint5_linear_476_1410)"/>
<path d="M268.126 113.119C268.016 115.251 268.633 117.358 269.876 119.094C270.071 119.518 270.359 119.893 270.72 120.19C271.41 120.674 272.341 120.52 273.175 120.386C273.367 120.334 273.57 120.334 273.762 120.386C274.23 120.561 274.276 121.194 274.276 121.698L274.148 124.03C274.097 124.349 274.153 124.677 274.307 124.961C274.466 125.156 274.682 125.297 274.925 125.363C275.785 125.647 276.706 125.691 277.589 125.49C278.473 125.29 279.284 124.853 279.938 124.225C280.27 123.926 280.54 123.564 280.73 123.16C280.883 122.772 280.98 122.365 281.018 121.95C281.302 119.727 281.07 117.462 281.224 115.224C281.353 113.366 281.739 111.482 281.389 109.65C281.206 108.655 280.782 107.721 280.154 106.928C279.526 106.136 278.713 105.51 277.786 105.105C275.928 104.354 273.813 104.688 271.883 105.234C270.955 105.496 270.041 105.807 269.145 106.166C268.708 106.284 268.329 106.559 268.08 106.938C267.725 107.653 268.111 108.693 268.126 109.459C268.147 110.689 268.126 111.904 268.126 113.119Z" fill="#FFCBBF"/>
<path d="M268.116 103.942C267.915 104.395 267.601 104.791 267.38 105.229C267.118 105.655 267.029 106.165 267.133 106.654C267.269 107.036 267.516 107.367 267.843 107.607C269.387 108.873 271.513 109.151 273.504 109.027C274.069 108.976 274.638 108.976 275.203 109.027C275.775 109.079 276.309 109.336 276.706 109.753C277.292 110.432 277.256 111.425 277.442 112.3C277.447 112.356 277.47 112.409 277.508 112.45C277.542 112.469 277.578 112.482 277.617 112.486C278.25 112.568 278.841 111.817 279.423 112.069C279.566 112.149 279.685 112.266 279.769 112.407C279.853 112.547 279.899 112.708 279.902 112.872C279.948 113.26 279.891 113.654 279.737 114.014C279.659 114.152 279.61 114.305 279.593 114.462C279.598 114.571 279.625 114.677 279.67 114.776L280.072 115.882C280.169 116.301 280.418 116.668 280.771 116.912C281.255 117.154 281.801 116.886 282.29 116.613C282.61 116.451 282.89 116.219 283.108 115.934C283.255 115.689 283.354 115.418 283.401 115.136C284.024 112.388 284.07 109.542 284.07 106.727C284.111 106.068 284.018 105.408 283.798 104.786C283.257 103.546 281.816 102.985 280.488 102.697C278.031 102.267 275.535 102.095 273.041 102.182C272.26 102.149 271.478 102.204 270.71 102.347C269.935 102.493 269.23 102.889 268.703 103.474" fill="#963637"/>
<path d="M271.996 115.733C272.402 115.929 272.715 116.274 272.871 116.696C272.881 116.716 272.887 116.739 272.887 116.763C272.887 116.786 272.881 116.809 272.871 116.829C272.855 116.845 272.836 116.858 272.814 116.865C272.793 116.873 272.771 116.877 272.748 116.876C271.891 116.935 271.031 116.935 270.174 116.876C269.5 116.852 268.838 116.691 268.229 116.402C268.181 116.381 268.14 116.348 268.111 116.304C268.099 116.262 268.099 116.218 268.111 116.176C268.12 116.005 268.163 115.837 268.238 115.683C268.313 115.529 268.418 115.391 268.547 115.278C268.676 115.166 268.827 115.08 268.99 115.026C269.152 114.973 269.324 114.952 269.495 114.966C270.378 115.019 271.236 115.282 271.996 115.733Z" fill="#963637"/>
<path d="M281.003 121.966C281.003 121.966 282.82 123.242 282.773 124.627C282.727 126.011 272.866 153.819 272.866 153.819C272.866 153.819 272.635 127.221 272.866 125.975C273.204 124.777 273.652 123.612 274.204 122.496C274.204 122.496 278.136 125.327 281.003 121.966Z" fill="white"/>
<path d="M277.776 124.482L278.43 126.634L277.318 127.565L276.788 142.655L272.866 153.803L272.768 142.465L276.139 127.493L274.909 125.383L276.531 124.482H277.776Z" fill="#212741"/>
<path d="M270.483 163.721C271.647 165.193 272.967 166.534 274.42 167.72C274.714 167.962 275.017 168.209 275.326 168.43C275.649 168.723 276.052 168.912 276.484 168.97C276.779 168.958 277.069 168.889 277.339 168.77C283.077 166.531 288.718 164.004 294.199 161.209C296.5 160.025 299.027 158.481 299.511 155.944C299.633 155.062 299.614 154.165 299.454 153.288C298.582 146.872 296.903 140.591 294.456 134.596C293.762 132.897 292.912 129.629 291.085 128.533L290.874 128.42L290.617 128.296C288.167 127.411 286.052 129.84 285.378 131.899C284.431 134.833 284.889 138.023 285.656 141.009C286.423 143.994 287.483 146.912 287.75 149.984C287.818 150.405 287.776 150.836 287.627 151.235C287.395 151.624 287.069 151.95 286.68 152.182L270.483 163.721Z" fill="#834ADF"/>
<path d="M270.483 233.551L270.051 237.869L267.334 238.383L266.114 237.308L264.055 238.955H255.867C255.867 238.955 253.808 235.352 258.301 234.158L262.815 232.938L270.483 233.551Z" fill="#212741"/>
<path d="M286.438 233.551L286.006 237.869L283.288 238.383L282.068 237.308L280.01 238.955H271.816C271.816 238.955 269.758 235.352 274.251 234.158L278.764 232.938L286.438 233.551Z" fill="#212741"/>
<path d="M272.768 186.942L269.119 183.983L266.541 232.928L270.478 233.551L272.768 186.942Z" fill="url(#paint6_linear_476_1410)"/>
<path d="M274.415 167.715C274.709 167.956 275.012 168.203 275.321 168.425C275.643 168.718 276.047 168.906 276.479 168.965C276.774 168.952 277.064 168.884 277.333 168.764C283.072 166.526 288.713 163.999 294.194 161.204C296.494 160.02 299.022 158.476 299.505 155.939C299.628 155.056 299.609 154.16 299.449 153.283C298.577 146.867 296.898 140.586 294.451 134.591C293.756 132.892 292.907 129.624 291.08 128.528L290.869 128.415L290.612 128.291C289.472 128.27 288.354 128.606 287.414 129.252C286.475 129.898 285.761 130.822 285.373 131.894C285.373 131.894 294.065 149.681 293.69 152.357C293.314 155.033 275.074 163.746 275.074 163.746L274.415 167.715Z" fill="url(#paint7_linear_476_1410)"/>
<path d="M266.366 165.213C265.89 165.332 265.445 165.553 265.064 165.862C264.875 166.018 264.736 166.226 264.662 166.459C264.588 166.693 264.583 166.943 264.647 167.179C264.795 167.455 264.967 167.717 265.162 167.962C265.403 168.378 265.429 168.893 265.645 169.325C266.065 169.98 266.715 170.452 267.467 170.648C269.639 171.43 272.29 171.544 274.04 170.041C275.321 168.945 277.874 164.441 275.069 163.762C274.04 163.51 272.547 163.983 271.507 164.127C269.767 164.348 268.047 164.712 266.366 165.213Z" fill="#FFCBBF"/>
<path d="M264.23 112.131C264.23 112.131 252.058 110.031 249.541 106.613V119.444C249.541 119.444 252.418 116.747 264.23 116.567C264.23 116.546 266.567 114.627 264.23 112.131Z" fill="#834ADF"/>
<path d="M249.032 119.722C250.339 119.722 251.399 116.689 251.399 112.949C251.399 109.208 250.339 106.176 249.032 106.176C247.724 106.176 246.664 109.208 246.664 112.949C246.664 116.689 247.724 119.722 249.032 119.722Z" fill="#834ADF"/>
<path d="M249.032 118.857C250.172 118.857 251.096 116.212 251.096 112.949C251.096 109.686 250.172 107.04 249.032 107.04C247.892 107.04 246.968 109.686 246.968 112.949C246.968 116.212 247.892 118.857 249.032 118.857Z" fill="url(#paint8_linear_476_1410)"/>
<path d="M261.77 116.407C261.77 116.407 262.13 122.975 260.226 123.829C258.322 124.683 257.529 123.602 257.709 123.242C257.889 122.882 259.742 118.152 258.903 116.829C258.064 115.507 261.77 116.407 261.77 116.407Z" fill="#834ADF"/>
<path d="M253.808 122.506C253.808 121.358 253.695 120.159 254.148 119.099C254.292 118.734 254.537 118.416 254.853 118.183C255.154 117.999 255.488 117.875 255.836 117.818C257.371 117.488 258.953 117.427 260.509 117.637C260.657 117.63 260.803 117.675 260.922 117.763C261.041 117.851 261.126 117.978 261.163 118.121C261.583 119.29 261.557 120.573 261.091 121.724C260.62 122.866 260.01 123.944 259.274 124.935C258.959 125.469 258.545 125.937 258.054 126.315C257.025 126.984 254.585 127.185 253.638 126.279C253.468 126.091 253.354 125.859 253.31 125.609C253.266 125.36 253.295 125.103 253.391 124.869C253.626 124.101 253.766 123.308 253.808 122.506Z" fill="#FFCBBF"/>
<path d="M248.677 112.444C248.524 112.474 248.381 112.542 248.26 112.64C248.141 112.769 248.077 112.938 248.08 113.114C248.084 113.327 248.135 113.538 248.23 113.73C248.324 113.922 248.459 114.091 248.625 114.225C248.963 114.483 249.356 114.659 249.773 114.74C249.817 114.75 249.863 114.75 249.907 114.74C249.953 114.724 249.994 114.695 250.025 114.658C250.279 114.344 250.428 113.959 250.452 113.556C250.507 113.288 250.507 113.011 250.452 112.743C250.18 111.817 249.336 112.264 248.677 112.444Z" fill="#834ADF"/>
<path d="M104.246 157.828C104.246 157.828 116.793 175.996 118.42 176.088C120.046 176.181 147.056 176.963 147.056 176.963L146.896 171.302C146.896 171.302 134.498 165.429 129.166 167.184C125.594 168.353 124.966 168.106 124.966 168.106C124.966 168.106 120.396 154.436 118.698 151.714C116.999 148.991 104.246 157.828 104.246 157.828Z" fill="#282328"/>
<path d="M116.804 148.389C116.804 148.389 117.509 158.327 114.905 161.873C112.3 165.419 89.13 174.879 89.13 174.879C89.13 174.879 86.6133 184.575 84.1635 186.716C81.7137 188.857 71.9504 198.039 71.9504 198.039L67.6787 193.88L81.1578 171.436C81.1578 171.436 81.971 168.435 83.3143 167.396C84.6576 166.356 101.23 148.276 101.23 148.276L116.804 148.389Z" fill="#473F47"/>
<path d="M107.905 109.269L111.945 110.144C113.34 110.448 114.869 110.834 115.682 112.002C116.449 113.093 116.361 114.549 116.196 115.872C115.985 117.643 115.707 119.408 115.363 121.158C114.905 123.484 114.333 125.79 114.086 128.147C113.505 133.968 115.038 139.768 116.557 145.414C117.071 147.231 114.694 148.543 112.954 149.259C109.633 150.616 106.017 151.087 102.46 150.628C102.136 150.608 101.822 150.511 101.544 150.345C101.171 150.003 100.932 149.539 100.87 149.037C100.149 146.006 99.5881 142.923 98.6514 139.943C98.2055 138.444 97.6196 136.989 96.9015 135.599C96.1964 134.277 95.9443 132.743 95.3575 131.343C94.884 130.206 94.2973 129.12 93.8804 127.957C93.424 126.814 93.287 125.568 93.4841 124.354C93.7621 123.031 94.2716 121.744 94.6679 120.453C95.0982 119.045 95.4318 117.609 95.6663 116.155C95.7757 115.162 96.0216 114.189 96.3972 113.263C97.2978 111.343 99.3616 110.211 101.425 109.717C103.489 109.223 105.831 108.816 107.905 109.269Z" fill="#FFCBBF"/>
<path d="M82.2644 98.9447C81.0035 97.7147 79.7219 96.5361 78.8676 94.9818C77.8005 93.0683 76.9742 91.0302 76.4075 88.9139C76.1632 88.1625 76.0824 87.3676 76.1707 86.5824C76.356 85.5068 77.0971 84.5752 77.2001 83.4944C77.2225 83.3775 77.2004 83.2564 77.1383 83.1548C77.0866 83.1032 77.0246 83.0632 76.9562 83.0375C76.8879 83.0118 76.8149 83.0009 76.742 83.0055L75.4914 82.9077C75.4878 81.9533 75.1469 81.0309 74.529 80.3035C74.0812 79.7888 73.3658 79.3565 72.7225 79.5933C72.0791 79.83 71.7858 80.7204 71.266 81.2608C70.7462 81.8012 70.0359 81.9813 69.5882 82.5217C69.0735 83.1599 69.0735 84.0657 69.0735 84.9201C69.1764 87.1949 70.319 88.6668 71.0807 90.7152C71.8925 92.8909 72.8503 95.0092 73.9474 97.0559C76.1385 101.161 78.8491 104.966 82.0122 108.379C83.7199 110.217 85.5512 111.937 87.4934 113.525C89.619 115.26 97.6684 122.167 100.072 119.583C103.33 116.083 99.9998 111.863 96.9839 110.113C91.6352 107.012 86.6911 103.261 82.2644 98.9447Z" fill="#FFCBBF"/>
<path d="M100.422 109.238C99.5057 111.431 98.648 113.647 97.8485 115.888C97.5963 116.603 97.3338 117.432 97.7353 118.09C98.0291 118.53 98.4771 118.844 98.9911 118.97C101.05 119.634 103.397 118.765 105.033 117.318C106.67 115.872 107.761 113.922 108.842 112.028C109.378 110.943 110.111 109.968 111.003 109.151C111.454 108.748 112.004 108.472 112.596 108.351C113.188 108.23 113.802 108.268 114.374 108.461C115.481 108.929 116.114 110.458 115.404 111.436C115.275 110.525 114.035 110.154 113.211 110.561C112.388 110.967 111.92 111.842 111.539 112.681C111.039 113.783 110.597 114.91 110.216 116.057C109.903 116.895 109.729 117.778 109.701 118.672C109.737 120.844 111.281 122.681 112.877 124.153C113.538 124.673 114.101 125.308 114.539 126.027C115.105 127.133 114.982 128.451 114.92 129.691C114.652 134.838 115.651 139.948 116.948 144.925C117.195 145.857 117.421 146.937 116.85 147.715C116.383 148.236 115.747 148.575 115.054 148.672C111.837 149.408 108.456 149.13 105.229 149.809C103.222 150.236 101.286 151.029 99.2381 151.219C98.9642 151.275 98.6795 151.225 98.4404 151.08C98.3315 150.966 98.2468 150.831 98.1911 150.684C98.1354 150.536 98.1099 150.379 98.1161 150.221C97.6015 144.513 97.4471 138.667 95.4399 133.299C94.498 130.782 93.1445 128.379 92.7379 125.723C92.6273 125.148 92.6273 124.558 92.7379 123.983C92.9088 123.42 93.1564 122.883 93.4738 122.388C95.1087 119.448 96.0785 116.186 96.3148 112.83" fill="white"/>
<path opacity="0.1" d="M113.397 133.772C113.484 134.724 113.494 135.831 112.769 136.454C112.551 136.604 112.349 136.776 112.167 136.968C111.806 137.426 111.986 138.08 111.992 138.662C111.992 139.794 111.317 140.792 110.89 141.842C110.463 142.892 110.417 144.318 111.358 144.93C111.966 145.332 112.825 145.275 113.345 145.779C114.153 146.567 113.736 148.301 114.791 148.703C115.094 148.778 115.414 148.739 115.69 148.595C115.967 148.451 116.182 148.211 116.294 147.92C116.502 147.331 116.557 146.699 116.454 146.083C115.936 139.615 115.369 133.15 114.755 126.685C114.762 126.338 114.686 125.993 114.531 125.682C114.377 125.37 114.151 125.1 113.87 124.894C113.325 124.38 112.573 123.35 111.883 123.165C111.369 124.328 112.336 126.5 112.558 127.699C112.928 129.706 113.208 131.731 113.397 133.772Z" fill="#020202"/>
<path d="M91.1681 99.5881C90.9622 100.165 90.6534 100.751 90.7667 101.348C90.9079 101.761 91.1341 102.14 91.4306 102.46C91.992 103.26 92.4003 104.157 92.6349 105.105C92.8356 105.821 93.0106 106.603 93.5716 107.092C94.2613 107.704 95.3009 107.653 96.2119 107.524C96.9118 107.426 97.6015 107.303 98.2705 107.149C98.5171 107.073 98.7778 107.055 99.0322 107.097C99.2864 107.174 99.512 107.324 99.6807 107.529C100.828 108.759 101.019 110.581 101.739 112.115C101.821 112.379 101.979 112.613 102.193 112.787C102.407 112.961 102.669 113.068 102.944 113.093C104.509 113.408 106.135 113.117 107.493 112.28C107.85 112.098 108.133 111.801 108.296 111.436C108.4 111.006 108.359 110.553 108.178 110.149C107.811 109.037 107.36 107.955 106.829 106.912C106.114 105.507 105.244 104.122 105.085 102.553C104.941 101.163 105.378 99.7683 105.342 98.3735C105.26 95.4605 102.923 92.8408 100.087 92.1975C97.6117 91.6211 95.2443 92.4909 93.2783 93.9731C92.5835 94.4878 92.007 94.8223 91.7806 95.7075C91.4512 96.9788 91.621 98.3323 91.1681 99.5881Z" fill="#FFCBBF"/>
<path d="M91.5078 90.3962C91.6303 89.7128 91.8993 89.064 92.2965 88.4945C92.6936 87.925 93.2094 87.4483 93.8084 87.0971C97.4676 84.7966 103.726 85.0385 106.876 88.1882C107.905 89.2176 108.615 90.6432 109.799 91.549C111.343 92.7327 113.402 92.8614 115.332 92.9489C114.906 93.5784 114.369 94.1244 113.747 94.5598C114.14 95.2464 114.769 95.7674 115.517 96.0266L114.21 96.8758L115.754 98.1573C115.137 98.5214 114.476 98.805 113.788 99.0014C114.004 100.468 114.327 101.916 114.755 103.335C114.124 102.852 113.373 102.549 112.583 102.46C112.229 103.395 112.088 104.397 112.172 105.394L110.283 104.436C110.253 105.356 109.962 106.249 109.444 107.01C110.113 106.027 107.143 104.632 106.567 104.565C105.867 104.488 105.388 104.781 104.838 104.447C104.127 104.004 103.649 102.825 102.861 102.295C103.289 101.678 103.86 101.168 104.241 100.52C104.454 100.21 104.574 99.8457 104.586 99.47C104.599 99.0943 104.504 98.7228 104.313 98.3992C103.865 97.8022 102.697 97.8846 102.537 98.6051C102.594 96.6751 101.142 95.0385 99.6189 93.8599C99.3867 93.6302 99.0968 93.4674 98.7798 93.3886C98.4628 93.3098 98.1304 93.3179 97.8176 93.4121C96.953 93.5665 96.0952 93.7587 95.2443 93.9885C94.6112 94.1635 93.5047 94.7348 92.8356 94.5032C91.6725 94.0657 91.3791 91.4358 91.5078 90.3962Z" fill="#FC682D"/>
<path d="M153.366 169.161C153.821 168.995 154.317 168.972 154.786 169.094C155.194 169.281 155.547 169.568 155.815 169.928C158.502 172.992 161.084 176.141 163.561 179.377C163.998 179.874 164.324 180.458 164.518 181.091C164.838 182.46 163.911 183.777 163.041 184.879C162.527 185.543 161.497 186.232 160.983 185.573C160.653 185.162 160.869 184.544 160.741 184.029C160.586 183.402 159.959 183.036 159.387 182.732L147.303 176.387C145.584 175.486 145.007 172.599 146.788 171.43C147.55 170.916 148.847 170.916 149.701 170.581C150.931 170.133 152.11 169.521 153.366 169.161Z" fill="#FFCBBF"/>
<path d="M101.425 106.86C101.657 106.813 101.898 106.844 102.11 106.948C102.303 107.108 102.431 107.333 102.47 107.581C102.799 108.809 103 110.068 103.072 111.338C103.11 111.675 103.082 112.015 102.99 112.342C102.941 112.504 102.851 112.651 102.728 112.768C102.606 112.885 102.455 112.969 102.29 113.011C101.904 113.077 101.534 112.83 101.142 112.8C100.927 112.796 100.714 112.84 100.518 112.929C100.323 113.018 100.149 113.15 100.01 113.314C99.7366 113.644 99.5065 114.007 99.3256 114.395C98.8505 115.282 98.3067 116.13 97.6993 116.932C97.8843 115.127 98.3424 113.361 99.058 111.693C99.2106 111.225 99.508 110.818 99.9072 110.53C100.221 110.345 100.633 110.283 100.828 109.979C101.142 109.495 100.664 108.909 100.267 108.492C99.8712 108.075 99.1712 107.462 99.5058 107.066C99.7116 106.814 101.106 106.891 101.425 106.86Z" fill="#E0A194"/>
<path d="M127.354 95.2237C128.269 93.9723 129.098 92.6604 129.835 91.2968C131.765 87.5192 132.784 82.7482 131.837 78.564C131.693 78.0978 131.632 77.6101 131.657 77.1229C131.672 76.8785 131.76 76.6443 131.911 76.4513C132.062 76.2583 132.267 76.1156 132.501 76.0421C132.707 76.0275 132.91 75.9912 133.108 75.934C133.402 75.7899 133.484 75.4193 133.69 75.162C133.864 74.9717 134.09 74.837 134.34 74.7747C134.589 74.7125 134.852 74.7254 135.095 74.812C135.576 74.9934 136.012 75.278 136.371 75.6458C136.951 76.1735 137.503 76.7319 138.023 77.3185C138.461 77.7446 138.782 78.2763 138.955 78.8625C139.156 79.8403 138.584 80.7925 138.034 81.6314C137.133 81.7137 136.901 84.2665 136.804 84.8738C136.577 86.2222 136.289 87.5655 135.965 88.8933C135.301 91.5556 134.432 94.1625 133.366 96.6905C131.256 101.69 128.411 106.346 124.925 110.504C123.16 112.604 116.546 120.9 113.705 118.811C109.851 115.985 112.331 111.23 114.946 108.934C119.634 104.896 123.803 100.291 127.354 95.2237Z" fill="#FFCBBF"/>
<path d="M93.4377 102.203C93.944 102.061 94.4601 101.958 94.9817 101.894C95.0471 101.873 95.1171 101.873 95.1825 101.894C95.2333 101.928 95.2728 101.976 95.2957 102.033C95.6877 102.784 95.806 103.648 95.6302 104.477C95.5834 104.804 95.4482 105.112 95.2391 105.368C95.1319 105.493 94.9906 105.584 94.8324 105.63C94.6742 105.675 94.506 105.674 94.3487 105.625C94.102 105.495 93.9036 105.29 93.7826 105.038C93.2461 104.316 92.9137 103.463 92.8201 102.568C92.8122 102.529 92.8122 102.489 92.8201 102.45C92.8503 102.401 92.8954 102.363 92.9488 102.342C93.244 102.189 93.569 102.103 93.9009 102.089" fill="white"/>
<path d="M90.4638 104.725L90.2109 104.663C90.3089 104.591 90.438 104.611 90.4638 104.725Z" fill="#834ADF"/>
<path d="M136.114 89.1867C136.286 90.7315 136.125 92.2953 135.64 93.7723C132.686 103.911 126.721 113.433 117.874 119.197C117.365 119.483 116.928 119.883 116.598 120.365C116.391 120.816 116.28 121.305 116.274 121.801C115.641 130.499 117.725 139.181 117.74 147.905C117.811 148.671 117.631 149.439 117.226 150.092C116.67 150.833 115.682 151.024 114.75 151.147C114.143 151.235 113.536 151.322 112.923 151.389C108.528 151.952 104.106 152.284 99.6756 152.383C98.9241 152.383 98.0801 152.383 97.5242 151.868C96.9684 151.353 96.8809 150.499 96.8192 149.727C96.3045 143.824 94.3333 138.198 92.9231 132.48C92.1964 129.689 91.7091 126.842 91.4666 123.968C91.3585 122.424 91.4254 120.952 90.6483 119.706C90.4091 119.316 90.1064 118.968 89.7528 118.677C88.4249 117.576 86.7162 117.056 85.2752 116.104C82.8923 114.534 81.41 111.925 80.0359 109.413C78.0235 105.774 75.9597 102.161 73.9988 98.4918C72.5475 95.7847 73.7672 94.2716 75.6921 92.8305C76.3817 92.3158 77.164 91.8012 77.9463 91.2196C79.3359 94.076 80.7461 96.9581 82.7379 99.4543C84.6679 101.858 87.2258 103.891 90.2108 104.663C90.1664 104.676 90.1275 104.703 90.0997 104.74C90.0719 104.777 90.0567 104.822 90.0564 104.869C90.0564 105.08 90.2623 105.224 90.4476 105.342C92.6606 106.714 94.8754 108.109 97.0919 109.526C97.5164 109.833 98.0061 110.037 98.5227 110.123C99.1094 110.164 100.931 109.161 101.039 110.19C101.039 110.252 101.039 110.319 101.039 110.386C100.945 110.737 100.874 111.095 100.828 111.456C100.863 111.681 100.961 111.892 101.11 112.064C101.26 112.236 101.454 112.363 101.672 112.429C102.117 112.537 102.582 112.526 103.021 112.398C103.505 112.274 103.968 112.08 104.395 111.822C105.085 111.379 105.62 110.731 106.268 110.226C107.298 109.398 108.466 109.526 109.727 109.382C111.012 109.247 112.274 108.943 113.479 108.476C116.927 107.061 119.871 104.534 122.192 101.657C125.594 97.4316 127.879 92.4393 130.628 87.761C130.901 87.2075 131.302 86.7262 131.796 86.356C132.227 86.1216 132.717 86.0154 133.206 86.0501C133.696 86.0847 134.166 86.2587 134.56 86.5516C134.986 86.8606 135.344 87.254 135.611 87.7074C135.878 88.1607 136.05 88.6643 136.114 89.1867Z" fill="#834ADF"/>
<path d="M150.514 171.482C150.715 172.3 151.405 172.887 152.058 173.438C153.489 174.663 154.894 176.011 155.615 177.761C155.975 178.631 156.155 179.583 156.644 180.386C157.133 181.188 158.065 181.888 158.605 182.769C159.418 184.102 159.398 185.939 160.561 186.989C161.93 188.219 164.307 187.539 165.321 186.006C166.335 184.472 166.274 182.455 165.836 180.669C164.894 176.984 162.506 173.849 159.979 171.003C158.435 169.279 156.376 167.401 153.865 167.617C152.177 167.766 150.051 169.66 150.514 171.482Z" fill="#834ADF"/>
<path d="M90.6174 119.614C90.359 119.283 90.0694 118.978 89.7528 118.703C88.4249 117.601 86.7162 117.082 85.2752 116.129C82.8923 114.56 81.41 111.95 80.0359 109.439C78.0235 105.8 75.9597 102.187 73.9988 98.5175C72.5475 95.8104 73.7672 94.2973 75.6921 92.8562C76.1956 93.1893 76.6292 93.6177 76.9684 94.1171C77.7044 95.1773 78.075 96.4434 78.5742 97.6375C79.798 100.38 81.5007 102.883 83.6025 105.028C85.759 107.349 87.8279 109.773 89.9741 112.125C90.1003 112.247 90.2047 112.39 90.2829 112.547C90.3602 112.808 90.3708 113.084 90.3138 113.35C90.1851 114.456 90.1851 115.574 90.3138 116.68C90.3807 117.359 91.1012 119.13 90.6174 119.614Z" fill="url(#paint9_linear_476_1410)"/>
<path d="M136.114 89.1867C136.286 90.7315 136.125 92.2954 135.64 93.7724C132.686 103.911 126.721 113.433 117.874 119.197C117.365 119.483 116.928 119.883 116.598 120.365C116.391 120.816 116.28 121.305 116.274 121.801C115.641 130.499 117.725 139.181 117.74 147.905C117.811 148.671 117.631 149.439 117.226 150.092C116.67 150.834 115.682 151.024 114.75 151.147C114.143 151.235 113.536 151.322 112.923 151.389H112.8C112.272 151.453 111.737 151.367 111.256 151.142C110.79 150.818 110.444 150.35 110.273 149.809C108.996 146.799 108.842 143.438 108.07 140.262C107.298 137.087 105.615 133.793 102.573 132.594C101.869 132.402 101.198 132.102 100.587 131.703C100.031 131.235 99.7424 130.329 100.231 129.789C100.472 129.568 100.767 129.413 101.086 129.341C102.866 128.78 104.688 128.384 106.407 127.607C108.126 126.829 109.701 125.599 110.411 123.87C111.075 122.285 110.926 120.448 111.698 118.909C112.578 117.113 114.467 116.083 116.181 115.033C122.341 111.236 127.434 105.936 130.983 99.6293C132.573 96.8038 133.304 92.0894 135.46 89.794C135.653 89.5661 135.873 89.3622 136.114 89.1867Z" fill="url(#paint10_linear_476_1410)"/>
<path d="M61.8372 196.999C59.0735 197.37 56.2634 197.195 53.479 197.359C52.999 197.341 52.5254 197.474 52.1255 197.74C51.4821 198.255 51.6108 199.346 52.1255 199.984C52.7216 200.572 53.4617 200.992 54.2716 201.204L58.389 202.666C60.6175 203.458 62.9129 204.261 65.2752 204.21C66.5722 204.179 68.0493 203.736 68.5485 202.542C68.7132 202.151 68.7544 201.713 68.8933 201.307C69.3102 200.097 70.5557 199.346 71.0806 198.178C71.8372 196.515 70.566 193.813 68.5897 194.343C67.5603 194.616 66.5619 195.661 65.5325 196.073C64.3434 196.532 63.1023 196.843 61.8372 196.999Z" fill="#FFCBBF"/>
<path d="M56.2017 197.159C56.8656 197.189 57.6015 197.251 58.0442 197.745C58.6772 198.44 58.3838 199.619 58.9294 200.386C59.192 200.704 59.5274 200.955 59.9073 201.116C62.4869 202.384 65.4346 202.689 68.2191 201.976C68.672 201.858 69.3462 201.852 69.3977 202.316C69.4032 202.445 69.371 202.574 69.3051 202.686C68.9774 203.285 68.5094 203.797 67.9412 204.176C67.3729 204.555 66.7213 204.791 66.0421 204.863C64.6828 204.998 63.3102 204.865 62.002 204.472C58.4692 203.523 55.0002 202.351 51.616 200.962C50.973 200.779 50.3926 200.423 49.9382 199.933C49.7558 199.716 49.6344 199.455 49.5864 199.176C49.5385 198.896 49.5657 198.61 49.6652 198.344C49.7648 198.079 49.9331 197.845 50.1529 197.667C50.3727 197.488 50.6361 197.372 50.916 197.328C52.6655 197.069 54.4391 197.012 56.2017 197.159Z" fill="#834ADF"/>
</g>
</svg>
